<mxfile host="app.diagrams.net" modified="2023-12-20T17:35:48.842Z" agent="Mozilla/5.0 (Windows NT 10.0; Win64; x64; rv:120.0) Gecko/20100101 Firefox/120.0" etag="b05mM9PiiFEMmHf-b7qq" version="22.1.11" type="github">
  <diagram name="Pagina-1" id="xa0SF8FRylrVgYRxZDdA">
    <mxGraphModel dx="574" dy="310" grid="1" gridSize="10" guides="1" tooltips="1" connect="1" arrows="1" fold="1" page="1" pageScale="1" pageWidth="291" pageHeight="413" math="0" shadow="0">
      <root>
        <mxCell id="0" />
        <mxCell id="1" parent="0" />
        <mxCell id="Qv3gOcVc1pW5SpsydzY9-2" value="" style="rounded=0;whiteSpace=wrap;html=1;imageWidth=24;" vertex="1" parent="1">
          <mxGeometry x="7" width="430" height="150" as="geometry" />
        </mxCell>
        <mxCell id="Qv3gOcVc1pW5SpsydzY9-4" value="" style="rounded=0;whiteSpace=wrap;html=1;" vertex="1" parent="1">
          <mxGeometry x="176.5" y="51.5" width="77" height="47" as="geometry" />
        </mxCell>
        <mxCell id="Qv3gOcVc1pW5SpsydzY9-5" value="" style="ellipse;whiteSpace=wrap;html=1;aspect=fixed;" vertex="1" parent="1">
          <mxGeometry x="40" y="30" width="3" height="3" as="geometry" />
        </mxCell>
        <mxCell id="Qv3gOcVc1pW5SpsydzY9-6" value="" style="ellipse;whiteSpace=wrap;html=1;aspect=fixed;" vertex="1" parent="1">
          <mxGeometry x="40" y="45" width="3" height="3" as="geometry" />
        </mxCell>
        <mxCell id="Qv3gOcVc1pW5SpsydzY9-7" value="" style="ellipse;whiteSpace=wrap;html=1;aspect=fixed;" vertex="1" parent="1">
          <mxGeometry x="40" y="60" width="3" height="3" as="geometry" />
        </mxCell>
        <mxCell id="Qv3gOcVc1pW5SpsydzY9-8" value="Radio" style="text;html=1;strokeColor=none;fillColor=none;align=center;verticalAlign=middle;whiteSpace=wrap;rounded=0;fontSize=8;spacing=0;" vertex="1" parent="1">
          <mxGeometry x="10" y="31.5" width="20" as="geometry" />
        </mxCell>
        <mxCell id="Qv3gOcVc1pW5SpsydzY9-10" value="TV" style="text;html=1;strokeColor=none;fillColor=none;align=center;verticalAlign=middle;whiteSpace=wrap;rounded=0;fontSize=8;spacing=0;" vertex="1" parent="1">
          <mxGeometry x="10" y="46.5" width="20" as="geometry" />
        </mxCell>
        <mxCell id="Qv3gOcVc1pW5SpsydzY9-11" value="CD1" style="text;html=1;strokeColor=none;fillColor=none;align=center;verticalAlign=middle;whiteSpace=wrap;rounded=0;fontSize=8;spacing=0;" vertex="1" parent="1">
          <mxGeometry x="10" y="61.5" width="20" as="geometry" />
        </mxCell>
        <mxCell id="Qv3gOcVc1pW5SpsydzY9-13" value="CD2" style="text;html=1;strokeColor=none;fillColor=none;align=center;verticalAlign=middle;whiteSpace=wrap;rounded=0;fontSize=8;spacing=0;rotation=0;" vertex="1" parent="1">
          <mxGeometry x="10" y="76.5" width="20" as="geometry" />
        </mxCell>
        <mxCell id="Qv3gOcVc1pW5SpsydzY9-14" value="" style="ellipse;whiteSpace=wrap;html=1;aspect=fixed;" vertex="1" parent="1">
          <mxGeometry x="40" y="75" width="3" height="3" as="geometry" />
        </mxCell>
        <mxCell id="Qv3gOcVc1pW5SpsydzY9-16" value="&lt;font style=&quot;font-size: 4px;&quot;&gt;knop&lt;/font&gt;" style="ellipse;whiteSpace=wrap;html=1;aspect=fixed;fontSize=4;" vertex="1" parent="1">
          <mxGeometry x="35.5" y="90" width="12" height="12" as="geometry" />
        </mxCell>
        <mxCell id="Qv3gOcVc1pW5SpsydzY9-17" value="Select" style="text;html=1;strokeColor=none;fillColor=none;align=center;verticalAlign=middle;whiteSpace=wrap;rounded=0;fontSize=8;spacing=0;rotation=0;" vertex="1" parent="1">
          <mxGeometry x="10" y="96" width="20" as="geometry" />
        </mxCell>
        <mxCell id="Qv3gOcVc1pW5SpsydzY9-18" value="&lt;div style=&quot;font-size: 3px;&quot;&gt;rotary&lt;/div&gt;&lt;div style=&quot;font-size: 3px;&quot;&gt;encoder&lt;br style=&quot;font-size: 3px;&quot;&gt;&lt;/div&gt;" style="ellipse;whiteSpace=wrap;html=1;aspect=fixed;fontSize=3;" vertex="1" parent="1">
          <mxGeometry x="290" y="67.5" width="15" height="15" as="geometry" />
        </mxCell>
        <mxCell id="Qv3gOcVc1pW5SpsydzY9-19" value="&lt;div style=&quot;font-size: 3px;&quot;&gt;rotary&lt;/div&gt;&lt;div style=&quot;font-size: 3px;&quot;&gt;encoder&lt;/div&gt;" style="ellipse;whiteSpace=wrap;html=1;aspect=fixed;fontSize=3;" vertex="1" parent="1">
          <mxGeometry x="330" y="67.5" width="15" height="15" as="geometry" />
        </mxCell>
        <mxCell id="Qv3gOcVc1pW5SpsydzY9-20" value="&lt;div style=&quot;font-size: 3px;&quot;&gt;rotary&lt;/div&gt;&lt;div style=&quot;font-size: 3px;&quot;&gt;encoder&lt;br style=&quot;font-size: 3px;&quot;&gt;&lt;/div&gt;" style="ellipse;whiteSpace=wrap;html=1;aspect=fixed;fontSize=3;" vertex="1" parent="1">
          <mxGeometry x="370" y="67.5" width="15" height="15" as="geometry" />
        </mxCell>
        <mxCell id="Qv3gOcVc1pW5SpsydzY9-21" value="ZONE" style="text;html=1;strokeColor=none;fillColor=none;align=center;verticalAlign=middle;whiteSpace=wrap;rounded=0;fontSize=10;" vertex="1" parent="1">
          <mxGeometry x="322.5" y="53" width="30" height="10" as="geometry" />
        </mxCell>
        <mxCell id="Qv3gOcVc1pW5SpsydzY9-22" value="&lt;div&gt;3&lt;/div&gt;" style="text;html=1;strokeColor=none;fillColor=none;align=center;verticalAlign=middle;whiteSpace=wrap;rounded=0;" vertex="1" parent="1">
          <mxGeometry x="371.25" y="90" width="12.5" height="10" as="geometry" />
        </mxCell>
        <mxCell id="Qv3gOcVc1pW5SpsydzY9-23" value="1" style="text;html=1;strokeColor=none;fillColor=none;align=center;verticalAlign=middle;whiteSpace=wrap;rounded=0;" vertex="1" parent="1">
          <mxGeometry x="292.5" y="90" width="12.5" height="10" as="geometry" />
        </mxCell>
        <mxCell id="Qv3gOcVc1pW5SpsydzY9-24" value="2" style="text;html=1;strokeColor=none;fillColor=none;align=center;verticalAlign=middle;whiteSpace=wrap;rounded=0;" vertex="1" parent="1">
          <mxGeometry x="331.25" y="90" width="12.5" height="10" as="geometry" />
        </mxCell>
        <mxCell id="Qv3gOcVc1pW5SpsydzY9-25" value="&lt;div style=&quot;font-size: 8px;&quot;&gt;&lt;font style=&quot;font-size: 8px;&quot;&gt;Radio: MNM&lt;br&gt;&lt;/font&gt;&lt;/div&gt;&lt;div style=&quot;font-size: 8px;&quot;&gt;&lt;font style=&quot;font-size: 8px;&quot;&gt;Zone 1: 90% AAN&lt;br&gt;&lt;/font&gt;&lt;/div&gt;&lt;div style=&quot;font-size: 8px;&quot;&gt;&lt;font style=&quot;font-size: 8px;&quot;&gt;Zone 2: 50% AAN&lt;br&gt;&lt;/font&gt;&lt;/div&gt;&lt;div style=&quot;font-size: 8px;&quot;&gt;&lt;font style=&quot;font-size: 8px;&quot;&gt;Zone 3&lt;font style=&quot;font-size: 8px;&quot;&gt;&lt;font style=&quot;font-size: 8px;&quot;&gt;: 50% AAN&lt;/font&gt;&lt;/font&gt;&lt;font style=&quot;font-size: 8px;&quot;&gt;&lt;font style=&quot;font-size: 8px;&quot;&gt;&lt;font style=&quot;font-size: 8px;&quot;&gt;&lt;br&gt;&lt;/font&gt;&lt;/font&gt;&lt;/font&gt;&lt;/font&gt;&lt;/div&gt;" style="text;html=1;strokeColor=none;fillColor=none;align=center;verticalAlign=middle;whiteSpace=wrap;rounded=0;" vertex="1" parent="1">
          <mxGeometry x="176.5" y="51.5" width="77" height="47" as="geometry" />
        </mxCell>
        <mxCell id="Qv3gOcVc1pW5SpsydzY9-26" value="&lt;p style=&quot;line-height: 100%; font-size: 4px;&quot;&gt;&lt;font style=&quot;font-size: 4px;&quot;&gt;knop&lt;/font&gt;&lt;/p&gt;" style="ellipse;whiteSpace=wrap;html=1;aspect=fixed;verticalAlign=middle;align=center;fontSize=4;" vertex="1" parent="1">
          <mxGeometry x="60" y="25.5" width="12" height="12" as="geometry" />
        </mxCell>
      </root>
    </mxGraphModel>
  </diagram>
</mxfile>
